<svg width="27" height="27" viewBox="0 0 27 27" fill="none" xmlns="http://www.w3.org/2000/svg">
<path d="M13.5001 7.68848C10.2958 7.68848 7.68896 10.2953 7.68896 13.4996C7.68896 16.7038 10.2958 19.3108 13.5001 19.3108C16.7044 19.3108 19.3113 16.7039 19.3113 13.4996C19.3113 10.2954 16.7044 7.68848 13.5001 7.68848Z" fill="#1D1D1D"/>
<path d="M19.5984 0H7.40164C3.32037 0 0 3.32037 0 7.40169V19.5984C0 23.6797 3.32037 27 7.40164 27H19.5984C23.6797 27 27 23.6796 27 19.5984V7.40169C27 3.32037 23.6797 0 19.5984 0ZM13.5 20.9056C9.41651 20.9056 6.09446 17.5835 6.09446 13.5C6.09446 9.41651 9.41657 6.09451 13.5 6.09451C17.5834 6.09451 20.9056 9.41657 20.9056 13.5C20.9056 17.5834 17.5834 20.9056 13.5 20.9056ZM21.3485 7.90151C20.1079 7.90151 19.0985 6.89217 19.0985 5.65154C19.0985 4.41091 20.1079 3.40153 21.3485 3.40153C22.5891 3.40153 23.5985 4.41086 23.5985 5.65149C23.5985 6.89212 22.5891 7.90151 21.3485 7.90151Z" fill="#1D1D1D"/>
</svg>
