<svg width="12" height="12" viewBox="0 0 12 12" fill="none" xmlns="http://www.w3.org/2000/svg">
<path d="M7.92838 0.347046H3.77738C2.85973 0.347046 1.97967 0.711581 1.33079 1.36046C0.681917 2.00933 0.317383 2.8894 0.317383 3.80705L0.317383 7.95805C0.317383 8.8757 0.681917 9.75576 1.33079 10.4046C1.97967 11.0535 2.85973 11.418 3.77738 11.418H7.92838C8.84603 11.418 9.7261 11.0535 10.375 10.4046C11.0238 9.75576 11.3884 8.8757 11.3884 7.95805V3.80705C11.3884 2.8894 11.0238 2.00933 10.375 1.36046C9.7261 0.711581 8.84603 0.347046 7.92838 0.347046ZM10.3504 7.95805C10.3499 8.60024 10.0945 9.21597 9.64041 9.67007C9.18631 10.1242 8.57057 10.3795 7.92838 10.38H3.77738C3.13519 10.3795 2.51945 10.1242 2.06536 9.67007C1.61126 9.21597 1.35591 8.60024 1.35538 7.95805V3.80705C1.35591 3.16485 1.61126 2.54912 2.06536 2.09502C2.51945 1.64092 3.13519 1.38558 3.77738 1.38505H7.92838C8.57057 1.38558 9.18631 1.64092 9.64041 2.09502C10.0945 2.54912 10.3499 3.16485 10.3504 3.80705V7.95805Z" fill="white"/>
<path d="M5.85296 3.11499C5.3055 3.11499 4.77033 3.27733 4.31513 3.58148C3.85994 3.88563 3.50517 4.31793 3.29566 4.82372C3.08616 5.3295 3.03134 5.88606 3.13815 6.423C3.24495 6.95994 3.50857 7.45314 3.89569 7.84026C4.2828 8.22737 4.77601 8.491 5.31295 8.59781C5.84989 8.70461 6.40644 8.6498 6.91223 8.44029C7.41801 8.23079 7.85031 7.876 8.15446 7.42081C8.45861 6.96561 8.62095 6.43045 8.62095 5.883C8.62095 5.14888 8.32932 4.44482 7.81022 3.92572C7.29112 3.40662 6.58708 3.11499 5.85296 3.11499ZM5.85296 7.61499C5.5108 7.61499 5.17632 7.51352 4.89183 7.32343C4.60733 7.13333 4.38559 6.86314 4.25465 6.54703C4.12371 6.23091 4.08945 5.88307 4.1562 5.54749C4.22295 5.2119 4.38772 4.90364 4.62966 4.6617C4.87161 4.41975 5.17986 4.25498 5.51545 4.18823C5.85104 4.12148 6.19888 4.15574 6.51499 4.28668C6.83111 4.41762 7.1013 4.63936 7.29139 4.92386C7.48149 5.20836 7.58296 5.54283 7.58296 5.88499C7.58243 6.34366 7.39999 6.78337 7.07566 7.1077C6.75134 7.43202 6.31162 7.61446 5.85296 7.61499Z" fill="white"/>
<path d="M8.82798 3.27609C9.03178 3.27609 9.19698 3.11088 9.19698 2.90709C9.19698 2.70329 9.03178 2.53809 8.82798 2.53809C8.62419 2.53809 8.45898 2.70329 8.45898 2.90709C8.45898 3.11088 8.62419 3.27609 8.82798 3.27609Z" fill="white"/>
</svg>
