<svg width="12" height="12" viewBox="0 0 12 12" fill="none" xmlns="http://www.w3.org/2000/svg">
<path d="M2.87294 4.25012H0.718945C0.673062 4.25012 0.629059 4.26835 0.596615 4.30079C0.564172 4.33323 0.545945 4.37724 0.545945 4.42312V11.3431C0.545412 11.3662 0.549493 11.3891 0.557948 11.4106C0.566403 11.432 0.579061 11.4516 0.595179 11.468C0.611297 11.4845 0.630549 11.4976 0.651803 11.5066C0.673058 11.5155 0.695885 11.5201 0.718945 11.5201H2.87294C2.91883 11.5201 2.96283 11.5019 2.99527 11.4695C3.02772 11.437 3.04594 11.393 3.04594 11.3471V4.42012C3.04516 4.37476 3.02658 4.33152 2.99423 4.29972C2.96187 4.26792 2.91831 4.25012 2.87294 4.25012Z" fill="white"/>
<path d="M1.79598 0.810059C1.51513 0.810059 1.24059 0.89334 1.00707 1.04937C0.77355 1.2054 0.591545 1.42718 0.484068 1.68665C0.376592 1.94612 0.348471 2.23163 0.403262 2.50709C0.458053 2.78254 0.593295 3.03556 0.791886 3.23415C0.990476 3.43274 1.2435 3.56798 1.51895 3.62277C1.7944 3.67756 2.07992 3.64944 2.33939 3.54197C2.59886 3.43449 2.82063 3.25249 2.97666 3.01897C3.1327 2.78545 3.21598 2.51091 3.21598 2.23006C3.21545 1.85361 3.06567 1.49274 2.79948 1.22655C2.5333 0.960364 2.17242 0.810588 1.79598 0.810059Z" fill="white"/>
<path d="M8.3518 4.07803C7.99823 4.07088 7.64709 4.13794 7.32103 4.27487C6.99497 4.4118 6.70125 4.61557 6.4588 4.87303V4.42403C6.4588 4.37815 6.44058 4.33415 6.40813 4.3017C6.37569 4.26926 6.33169 4.25103 6.2858 4.25103H4.2228C4.17692 4.25103 4.13292 4.26926 4.10047 4.3017C4.06803 4.33415 4.0498 4.37815 4.0498 4.42403V11.344C4.0498 11.3899 4.06803 11.4339 4.10047 11.4664C4.13292 11.4988 4.17692 11.517 4.2228 11.517H6.3738C6.41968 11.517 6.46369 11.4988 6.49613 11.4664C6.52858 11.4339 6.5468 11.3899 6.5468 11.344V7.91703C6.5468 6.76303 6.8598 6.31703 7.6648 6.31703C8.5408 6.31703 8.6108 7.03803 8.6108 7.98003V11.345C8.6108 11.3909 8.62903 11.4349 8.66148 11.4674C8.69392 11.4998 8.73792 11.518 8.78381 11.518H10.9338C10.9797 11.518 11.0237 11.4998 11.0561 11.4674C11.0886 11.4349 11.1068 11.3909 11.1068 11.345V7.54503C11.1048 5.83203 10.7738 4.07803 8.3518 4.07803Z" fill="white"/>
</svg>
