<svg width="12" height="10" viewBox="0 0 12 10" fill="none" xmlns="http://www.w3.org/2000/svg">
<path d="M10.0783 2.914C10.5181 2.59647 10.9011 2.20701 11.2113 1.762C10.7973 1.9404 10.3593 2.05666 9.91129 2.107C10.3798 1.83166 10.7315 1.39457 10.9003 0.877999C10.457 1.13816 9.97227 1.32014 9.46729 1.416C9.25428 1.1933 8.9981 1.01637 8.71441 0.896011C8.43071 0.775655 8.12545 0.714404 7.81729 0.716C7.52256 0.713892 7.23032 0.769889 6.95724 0.880792C6.68417 0.991694 6.43564 1.15533 6.22584 1.36234C6.01605 1.56934 5.8491 1.81567 5.73456 2.08723C5.62002 2.3588 5.56012 2.65027 5.55829 2.945C5.55923 3.11681 5.578 3.28806 5.61429 3.456C4.71855 3.41251 3.84173 3.18266 3.03986 2.78112C2.23799 2.37958 1.52869 1.81518 0.957291 1.124C0.756387 1.46437 0.65134 1.85277 0.65329 2.248C0.654337 2.61614 0.746922 2.97825 0.922707 3.30171C1.09849 3.62518 1.35196 3.89985 1.66029 4.101C1.30257 4.08741 0.952962 3.9905 0.63929 3.818V3.848C0.64185 4.36546 0.82373 4.86603 1.15395 5.26444C1.48416 5.66286 1.94229 5.93446 2.45029 6.033C2.2562 6.08285 2.05667 6.10838 1.85629 6.109C1.71331 6.10827 1.57058 6.0969 1.42929 6.075C1.57728 6.52005 1.86012 6.90801 2.23857 7.18504C2.61702 7.46207 3.07232 7.61444 3.54129 7.621C2.73956 8.24045 1.75444 8.57539 0.741291 8.573C0.559237 8.57415 0.377267 8.5648 0.196289 8.545C1.23343 9.20188 2.43663 9.54882 3.66429 9.545C4.50423 9.55666 5.33812 9.40124 6.11747 9.08776C6.89681 8.77429 7.60606 8.30901 8.20399 7.71899C8.80193 7.12897 9.2766 6.42597 9.60043 5.65087C9.92426 4.87577 10.0908 4.04403 10.0903 3.204C10.0853 3.107 10.0853 3.011 10.0783 2.914Z" fill="white"/>
</svg>
