<svg width="12" height="9" viewBox="0 0 12 9" fill="none" xmlns="http://www.w3.org/2000/svg">
<path d="M10.7802 1.44195C10.3802 0.966948 9.6422 0.772949 8.2322 0.772949H3.1132C1.6712 0.772949 0.920205 0.97895 0.521205 1.48595C0.158403 2.16816 0.0224917 2.94824 0.133205 3.71295V5.63095C0.133205 7.58095 0.594205 8.57095 3.1132 8.57095H8.2332C9.05997 8.68397 9.89836 8.47213 10.5722 7.97995C10.8324 7.65212 11.0233 7.27491 11.1335 6.87115C11.2437 6.4674 11.2708 6.04549 11.2132 5.63095V3.71295C11.3271 2.92882 11.1746 2.12916 10.7802 1.44195ZM7.2462 4.93595L4.9222 6.15595C4.86773 6.18456 4.80677 6.19861 4.74527 6.19672C4.68376 6.19484 4.62378 6.17709 4.57116 6.14519C4.51853 6.11329 4.47505 6.06833 4.44492 6.01468C4.41479 5.96102 4.39904 5.90049 4.3992 5.83895V3.41295C4.39913 3.35155 4.4149 3.29117 4.44497 3.23765C4.47505 3.18412 4.51842 3.13926 4.5709 3.10739C4.62338 3.07552 4.68319 3.05773 4.74455 3.05572C4.80592 3.05372 4.86676 3.06757 4.92121 3.09595L7.2452 4.30295C7.30331 4.33304 7.35202 4.37853 7.38602 4.43443C7.42003 4.49034 7.43801 4.55452 7.43801 4.61995C7.43801 4.68538 7.42003 4.74956 7.38602 4.80547C7.35202 4.86137 7.30331 4.90686 7.2452 4.93695L7.2462 4.93595Z" fill="white"/>
</svg>
