<svg width="26" height="18" viewBox="0 0 26 18" fill="none" xmlns="http://www.w3.org/2000/svg">
<path d="M25.4643 2.81657C25.1647 1.7152 24.2865 0.847011 23.1728 0.550447C21.1382 0 12.9997 0 12.9997 0C12.9997 0 4.86152 0 2.82693 0.529578C1.73466 0.825828 0.835036 1.71536 0.535426 2.81657C0 4.82818 0 9 0 9C0 9 0 13.1928 0.535426 15.1834C0.835353 16.2846 1.71324 17.1528 2.82709 17.4494C4.88294 18 13 18 13 18C13 18 21.1382 18 23.1728 17.4704C24.2867 17.174 25.1647 16.3058 25.4646 15.2046C25.9999 13.1928 25.9999 9.02118 25.9999 9.02118C25.9999 9.02118 26.0213 4.82818 25.4643 2.81657ZM10.4086 12.8541V5.14593L17.1762 9L10.4086 12.8541Z" fill="black"/>
</svg>
